HIERARCHY
ROOT root     
{
	OFFSET 0.0000 0.0000 0.0000
	CHANNELS 6 Xposition Yposition Zposition Zrotation Yrotation Xrotation
	JOINT pelvis   
	{
		OFFSET 0.0000 0.0000 0.0000
		CHANNELS 3 Zrotation Yrotation Xrotation
		JOINT thorax   
		{
			OFFSET 0.0000 23.0750 -5.0000
			CHANNELS 3 Zrotation Yrotation Xrotation
			JOINT rclavicle
			{
				OFFSET 0.0000 28.0009 0.0000
				CHANNELS 3 Zrotation Yrotation Xrotation
				JOINT rhumerus 
				{
					OFFSET -18.5725 5.5939 0.0000
					CHANNELS 3 Zrotation Yrotation Xrotation
					JOINT rradius  
					{
						OFFSET -24.8459 0.0000 0.0000
						CHANNELS 3 Zrotation Yrotation Xrotation
						JOINT rhand    
						{
							OFFSET -24.5477 0.0000 0.0000
							CHANNELS 3 Zrotation Yrotation Xrotation
							End Site
							{
								OFFSET -8.1826 0.0000 0.0000
							}
						}
					}
				}
			}
			JOINT lclavicle
			{
				OFFSET 0.0000 28.0009 0.0000
				CHANNELS 3 Zrotation Yrotation Xrotation
				JOINT lhumerus 
				{
					OFFSET 18.5725 5.5939 0.0000
					CHANNELS 3 Zrotation Yrotation Xrotation
					JOINT lradius  
					{
						OFFSET 24.8459 0.0000 0.0000
						CHANNELS 3 Zrotation Yrotation Xrotation
						JOINT lhand    
						{
							OFFSET 24.5477 0.0000 0.0000
							CHANNELS 3 Zrotation Yrotation Xrotation
							End Site
							{
								OFFSET 8.1826 0.0000 0.0000
							}
						}
					}
				}
			}
			JOINT head     
			{
				OFFSET 0.0000 35.2030 0.0000
				CHANNELS 3 Zrotation Yrotation Xrotation
				End Site
				{
					OFFSET 0.0000 11.7343 0.0000
				}
			}
		}
		JOINT rfemur   
		{
			OFFSET -8.2817 0.0000 0.0000
			CHANNELS 3 Zrotation Yrotation Xrotation
			JOINT rtibia   
			{
				OFFSET 0.0000 -43.3627 0.0000
				CHANNELS 3 Zrotation Yrotation Xrotation
				JOINT rfoot    
				{
					OFFSET 0.0000 -38.2947 0.0000
					CHANNELS 3 Zrotation Yrotation Xrotation
					JOINT rtoes    
					{
						OFFSET 0.0000 0.0000 16.6054
						CHANNELS 3 Zrotation Yrotation Xrotation
						End Site
						{
							OFFSET 0.0000 0.0000 5.5351
						}
					}
				}
			}
		}
		JOINT lfemur   
		{
			OFFSET 8.2817 0.0000 0.0000
			CHANNELS 3 Zrotation Yrotation Xrotation
			JOINT ltibia   
			{
				OFFSET 0.0000 -43.3627 0.0000
				CHANNELS 3 Zrotation Yrotation Xrotation
				JOINT lfoot    
				{
					OFFSET 0.0000 -38.2947 0.0000
					CHANNELS 3 Zrotation Yrotation Xrotation
					JOINT ltoes    
					{
						OFFSET 0.0000 0.0000 16.6054
						CHANNELS 3 Zrotation Yrotation Xrotation
						End Site
						{
							OFFSET 0.0000 0.0000 5.5351
						}
					}
				}
			}
		}
	}
}
MOTION
Frames: 15
Frame Time: .0333333
54.253 80.219 9.9474 45.4203 -88.5178 -20.8807 0 -0 0 3.81639 -1.38099 15.6431 17.2446 -9.07402 -1.2144e-05 51.0378 16.1908 9.04794 -2.21235e-05 88.4314 -2.21424e-05 -2.99867 6.96378 -0.182505 -18.2145 15.6019 0.00010704 -60.1554 18.5786 12.2981 0 -52.5433 0 -1.98925 2.80506 -0.048698 1.1331 -4.68686 -20.4244 7.08765 -13.0224 -38.1717 -0 -0 58.2713 -1.02832e-05 4.49774 -10.7407 -0.839919 4.08874e-06 -45.8052 -7.62221 8.60666 -58.3015 -0 -0 63.7504 -2.62352e-05 13.3598 -10.5441 -2.48855 -4.75555e-06 -20.8623 
53.232 80.283 9.9372 48.4629 -88.6046 -23.8689 0 -0 0 3.53536 -0.914593 15.593 16.9305 -9.07404 2.54944e-05 50.489 16.5403 8.92855 -0.000156591 89.5027 -0.000156684 -2.95853 6.89122 -0.178203 -18.29 15.9855 -3.65825e-05 -60.0811 19.3084 12.4861 0 -52.4576 0 -2.23813 2.86099 -0.0558982 1.06888 -4.72396 -20.6463 6.90297 -13.0097 -37.2858 -0 -0 57.8464 1.89233e-07 4.632 -10.4431 -0.841398 3.85028e-06 -46.8952 -8.25671 8.4495 -59.2456 -0 -0 61.8059 -1.54577e-05 13.2736 -10.2858 -2.41212 1.54272e-05 -20.4997 
52.193 80.335 9.9246 51.3044 -88.7121 -26.6721 0 -0 0 3.24771 -0.464804 15.5334 16.6509 -9.08755 2.15399e-05 49.9337 16.8388 8.7696 -180 89.3967 -180 -2.90998 6.83022 -0.173704 -18.3425 16.39 -0.000157746 -60.0146 20.029 12.6274 0 -52.472 0 -2.53298 2.9171 -0.0644996 1.0165 -4.75115 -20.8696 6.71919 -12.9919 -36.3755 -0 -0 57.4037 7.45429e-06 4.74169 -10.1497 -0.837389 2.30902e-06 -48.094 -8.88344 8.29515 -60.1169 -0 -0 59.7696 3.49796e-05 13.1336 -9.95731 -2.3104 6.55235e-06 -20.3956 
51.137 80.376 9.9095 53.7849 -88.8343 -29.1243 0 -0 0 2.95614 -0.0316948 15.4615 16.406 -9.11401 -1.52847e-05 49.3726 17.0848 8.57326 -180 88.4781 -180 -2.84341 6.77045 -0.168201 -18.3727 16.8094 6.47918e-05 -59.9551 20.7318 12.7277 0 -52.5653 0 -2.86032 2.96262 -0.0740015 0.975302 -4.77174 -21.0943 6.53918 -12.9689 -35.4474 -0 -0 56.946 -6.24681e-07 4.83384 -9.88021 -0.831304 -1.47319e-06 -49.2444 -9.50742 8.15044 -60.9135 -0 -0 57.6561 1.25818e-05 12.9321 -9.60039 -2.1931 5.11938e-06 -20.4524 
50.062 80.407 9.892 55.8582 -88.8965 -31.1592 0 -0 0 2.65673 0.38321 15.3825 16.1975 -9.15074 -1.64703e-06 48.8147 17.2761 8.34456 -180 87.5173 -180 -2.75362 6.71033 -0.161502 -18.384 17.2393 -6.81e-05 -59.9055 21.4121 12.7884 0 -52.7241 0 -3.21338 2.99781 -0.0840991 0.948222 -4.78823 -21.3231 6.36088 -12.9502 -34.4964 -0 -0 56.4757 -2.00123e-06 4.91419 -9.62584 -0.8237 1.29706e-06 -50.4254 -10.1367 8.01752 -61.6297 -0 -0 55.4678 -3.06146e-05 12.6638 -9.23825 -2.06591 -2.37606e-06 -20.7756 
48.968 80.425 9.8721 57.3127 -88.9571 -32.5849 0 -0 0 2.35151 0.780485 15.2975 16.0217 -9.19736 -3.60899e-05 48.2688 17.408 8.08778 -180 86.6249 -180 -2.63616 6.64476 -0.153098 -18.3773 17.6737 -0.000128086 -59.8615 22.0644 12.8188 0 -52.931 0 -3.58078 3.01918 -0.094398 0.935308 -4.80496 -21.554 6.18464 -12.9343 -33.5248 -0 -0 55.9971 -1.94075e-06 4.99379 -9.3893 -0.816688 -1.74546e-06 -51.5309 -10.7728 7.89737 -62.2568 -0 -0 53.2192 3.89326e-05 12.3244 -8.89693 -1.93533 2.34913e-06 -21.3553 
47.852 80.43 9.85 57.9537 -89.0752 -33.2312 0 -0 0 2.03928 1.15928 15.2115 15.8733 -9.25103 -4.19119e-06 47.7455 17.4789 7.80965 -180 85.7846 -180 -2.48904 6.57434 -0.143003 -18.3544 18.1043 3.20335e-05 -59.8263 22.6902 12.8149 4.50948e-07 -53.1818 -9.00868e-07 -3.95978 3.03292 -0.104903 0.938887 -4.82444 -21.787 6.00776 -12.9259 -32.5255 -0 -0 55.5184 -5.13784e-07 5.07978 -9.14188 -0.809085 -3.43568e-06 -52.7309 -11.4144 7.78785 -62.7792 -0 -0 50.9161 -1.64434e-05 11.9161 -8.58008 -1.8032 -1.66387e-06 -22.3156 
46.71 80.42 9.8255 57.7159 -89.1139 -32.9978 0 -0 0 1.7239 1.5206 15.1327 15.7511 -9.31103 7.65438e-05 47.2522 17.4888 7.51718 -180 84.9763 -180 -2.31128 6.49594 -0.131198 -18.3205 18.5279 8.79347e-06 -59.7992 23.2871 12.7792 0 -53.4703 0 -4.34316 3.04126 -0.115398 0.95899 -4.84964 -22.0204 5.8319 -12.9265 -31.4962 -0 -0 55.0445 4.58266e-06 5.18249 -8.86651 -0.800896 2.00134e-06 -54.0344 -12.052 7.68805 -63.1825 -0 -0 48.5757 1.18644e-05 11.4416 -8.28869 -1.67124 1.33708e-05 -23.6251 
45.542 80.393 9.7983 56.2128 -89.1567 -31.5227 0 -0 0 1.41399 1.86787 15.0545 15.651 -9.37917 2.85298e-05 46.7937 17.4401 7.22026 -180 84.2473 -180 -2.10553 6.40402 -0.117802 -18.2785 18.9397 0.000135822 -59.7764 23.8566 12.7256 4.62213e-07 -53.7848 -9.11356e-07 -4.71754 3.04018 -0.125301 0.992217 -4.88293 -22.2485 5.65983 -12.9321 -30.4347 -0 -0 54.5864 3.56491e-06 5.31463 -8.55857 -0.793212 4.98932e-07 -55.3087 -12.6619 7.58766 -63.4606 -0 -0 46.2293 2.78169e-06 10.9159 -8.02515 -1.54229 -5.19191e-06 -25.069 
44.344 80.345 9.7682 53.1123 -89.2228 -28.485 0 -0 0 1.11439 2.20203 14.9847 15.5669 -9.45473 -4.42286e-05 46.376 17.3328 6.92657 -180 83.5742 -180 -1.87583 6.29916 -0.103202 -18.2306 19.3421 -0.000169274 -59.7582 24.3971 12.6583 4.687e-07 -54.1246 -9.17404e-07 -5.08052 3.03406 -0.134598 1.03832 -4.92346 -22.4673 5.4924 -12.94 -29.3368 -0 -0 54.1524 -1.48431e-06 5.48143 -8.19005 -0.783186 3.34653e-06 -56.6674 -13.2178 7.48112 -63.6053 -0 -0 43.9153 -3.89824e-06 10.3609 -7.76625 -1.41517 -2.09107e-06 -26.5679 
43.115 80.274 9.7343 47.6805 -89.3176 -23.1568 0 -0 0 0.831888 2.52439 14.9232 15.495 -9.53685 7.60264e-05 46.0029 17.172 6.64623 -180 82.9645 -180 -1.62808 6.18204 -0.0878991 -18.1786 19.727 9.26036e-05 -59.7429 24.9158 12.574 0 -54.4883 0 -5.43064 3.02595 -0.143496 1.0957 -4.96992 -22.6695 5.33342 -12.9481 -28.201 -0 -0 53.749 8.4708e-06 5.68798 -7.74889 -0.769397 -4.73722e-06 -58.0994 -13.6839 7.35716 -63.62 -0 -0 41.693 6.24334e-06 9.80871 -7.48299 -1.2898 -8.63631e-06 -28.0083 
41.855 80.178 9.6958 38.979 -89.3982 -14.5868 0 -0 0 0.571196 2.83686 14.8644 15.4343 -9.62542 -2.53248e-05 45.6712 16.9603 6.38671 -180 82.4179 -180 -1.37046 6.05417 -0.0725033 -18.1232 20.0989 -8.70333e-05 -59.7345 25.4142 12.477 0 -54.8702 0 -5.76561 3.0151 -0.1519 1.16391 -5.01828 -22.8523 5.18563 -12.9513 -27.0308 -0 -0 53.3849 1.03736e-06 5.93571 -7.22547 -0.749205 2.88312e-06 -59.6154 -14.022 7.20262 -63.5224 -0 -0 39.6343 1.03742e-05 9.30277 -7.14781 -1.16769 2.80635e-06 -29.2548 
40.563 80.054 9.6512 25.2924 -89.4206 -1.05242 0 -0 0 0.336697 3.13641 14.8164 15.3844 -9.71756 -2.36914e-05 45.3844 16.7037 6.1533 -180 81.9344 -180 -1.1108 5.91987 -0.0573994 -18.0695 20.4486 0.000138105 -59.7306 25.8993 12.3551 0 -55.281 0 -6.08908 3.00804 -0.159997 1.24353 -5.06299 -23.014 5.05117 -12.9483 -25.82 -0 -0 53.0597 -3.98194e-06 6.22166 -6.61092 -0.719103 3.04e-06 -61.2573 -14.1958 7.00924 -63.3223 -0 -0 37.8188 -2.49128e-06 8.884 -6.73128 -1.0496 6.94345e-06 -30.2541 
39.243 79.9 9.6004 6.49468 -89.4432 17.5501 0 -0 0 0.125898 3.42456 14.7637 15.3473 -9.81203 3.3023e-05 45.1349 16.406 5.95241 -180 81.5258 -180 -0.858703 5.78114 -0.0434005 -18.0119 20.7854 6.20722e-05 -59.7363 26.3643 12.2154 0 -55.707 0 -6.39839 2.99819 -0.1676 1.33613 -5.09817 -23.15 4.93202 -12.9352 -24.589 -0 -0 52.7806 -8.52008e-06 6.54363 -5.91317 -0.677001 -6.00288e-06 -62.9946 -14.1776 6.762 -63.0635 -0 -0 36.3316 1.70444e-06 8.59848 -6.21842 -0.938409 -8.38237e-07 -30.9291 
37.897 79.718 9.5428 -13.8027 -89.3755 37.6357 0 -0 0 -0.0660203 3.69966 14.7033 15.3262 -9.90526 -2.04046e-05 44.9206 16.071 5.78564 -180 81.1807 -180 -0.622903 5.64283 -0.0307006 -17.9506 21.1045 -2.46645e-05 -59.7531 26.8107 12.047 0 -56.1485 0 -6.69525 2.98746 -0.174795 1.44466 -5.11697 -23.2607 4.82608 -12.913 -23.3453 -0 -0 52.5519 -6.80478e-06 6.89791 -5.14045 -0.621005 -2.8837e-06 -64.8289 -13.9552 6.45641 -62.7815 -0 -0 35.2539 3.26791e-06 8.47368 -5.60025 -0.833007 -1.15554e-06 -31.2748 
